<?xml version="1.0" encoding="UTF-8" standalone="no"?>
<!DOCTYPE svg PUBLIC "-//W3C//DTD SVG 1.1//EN"
 "http://www.w3.org/Graphics/SVG/1.1/DTD/svg11.dtd">
<!-- Generated by graphviz version 2.36.0 (20140111.2315)
 -->
<!-- Title: ShowClass.main Pages: 1 -->
<svg width="586pt" height="77pt"
 viewBox="0.00 0.00 586.00 77.00" xmlns="http://www.w3.org/2000/svg" xmlns:xlink="http://www.w3.org/1999/xlink">
<g id="graph0" class="graph" transform="scale(1 1) rotate(0) translate(4 73)">
<title>ShowClass.main</title>
<polygon fill="white" stroke="none" points="-4,4 -4,-73 582,-73 582,4 -4,4"/>
<!-- Node1 -->
<g id="node1" class="node"><title>Node1</title>
<polygon fill="#bfbfbf" stroke="black" points="0.5,-22.5 0.5,-41.5 95.5,-41.5 95.5,-22.5 0.5,-22.5"/>
<text text-anchor="middle" x="48" y="-29.5" font-family="Helvetica,sans-Serif" font-size="10.00">ShowClass.main</text>
</g>
<!-- Node2 -->
<g id="node2" class="node"><title>Node2</title>
<g id="a_node2"><a xlink:href="../../d3/d0a/class_show_class.html#a079a03c946ec1f137e32dfb517846479" target="_top" xlink:title="ShowClass.print_class">
<polygon fill="white" stroke="black" points="132,-22.5 132,-41.5 254,-41.5 254,-22.5 132,-22.5"/>
<text text-anchor="middle" x="193" y="-29.5" font-family="Helvetica,sans-Serif" font-size="10.00">ShowClass.print_class</text>
</a>
</g>
</g>
<!-- Node1&#45;&gt;Node2 -->
<g id="edge1" class="edge"><title>Node1&#45;&gt;Node2</title>
<path fill="none" stroke="midnightblue" d="M95.8235,-32C104.078,-32 112.834,-32 121.567,-32"/>
<polygon fill="midnightblue" stroke="midnightblue" points="121.779,-35.5001 131.779,-32 121.779,-28.5001 121.779,-35.5001"/>
</g>
<!-- Node3 -->
<g id="node3" class="node"><title>Node3</title>
<g id="a_node3"><a xlink:href="../../d3/d0a/class_show_class.html#ae6e5b2971dfe3d64b44b84edcea02688" target="_top" xlink:title="ShowClass.print_method\l_or_constructor">
<polygon fill="white" stroke="black" points="290.5,-39 290.5,-69 425.5,-69 425.5,-39 290.5,-39"/>
<text text-anchor="start" x="298.5" y="-57" font-family="Helvetica,sans-Serif" font-size="10.00">ShowClass.print_method</text>
<text text-anchor="middle" x="358" y="-46" font-family="Helvetica,sans-Serif" font-size="10.00">_or_constructor</text>
</a>
</g>
</g>
<!-- Node2&#45;&gt;Node3 -->
<g id="edge2" class="edge"><title>Node2&#45;&gt;Node3</title>
<path fill="none" stroke="midnightblue" d="M254.232,-40.1295C262.706,-41.2732 271.509,-42.4614 280.24,-43.6398"/>
<polygon fill="midnightblue" stroke="midnightblue" points="280.053,-47.1462 290.432,-45.0153 280.99,-40.2091 280.053,-47.1462"/>
</g>
<!-- Node5 -->
<g id="node5" class="node"><title>Node5</title>
<g id="a_node5"><a xlink:href="../../d3/d0a/class_show_class.html#a2c45574314a46cc35365d85ca7b298bd" target="_top" xlink:title="ShowClass.print_field">
<polygon fill="white" stroke="black" points="299.5,-0.5 299.5,-19.5 416.5,-19.5 416.5,-0.5 299.5,-0.5"/>
<text text-anchor="middle" x="358" y="-7.5" font-family="Helvetica,sans-Serif" font-size="10.00">ShowClass.print_field</text>
</a>
</g>
</g>
<!-- Node2&#45;&gt;Node5 -->
<g id="edge4" class="edge"><title>Node2&#45;&gt;Node5</title>
<path fill="none" stroke="midnightblue" d="M254.232,-23.8705C265.665,-22.3274 277.699,-20.7032 289.344,-19.1315"/>
<polygon fill="midnightblue" stroke="midnightblue" points="290.011,-22.5733 299.453,-17.7671 289.074,-15.6362 290.011,-22.5733"/>
</g>
<!-- Node4 -->
<g id="node4" class="node"><title>Node4</title>
<g id="a_node4"><a xlink:href="../../d3/d0a/class_show_class.html#a667a31cd9b8bd4b7b060c035c63f5b29" target="_top" xlink:title="ShowClass.modifiers">
<polygon fill="white" stroke="black" points="462.5,-22.5 462.5,-41.5 577.5,-41.5 577.5,-22.5 462.5,-22.5"/>
<text text-anchor="middle" x="520" y="-29.5" font-family="Helvetica,sans-Serif" font-size="10.00">ShowClass.modifiers</text>
</a>
</g>
</g>
<!-- Node3&#45;&gt;Node4 -->
<g id="edge3" class="edge"><title>Node3&#45;&gt;Node4</title>
<path fill="none" stroke="midnightblue" d="M425.927,-44.7975C434.667,-43.5958 443.621,-42.3646 452.356,-41.1635"/>
<polygon fill="midnightblue" stroke="midnightblue" points="453.054,-44.6005 462.484,-39.7709 452.101,-37.6658 453.054,-44.6005"/>
</g>
<!-- Node5&#45;&gt;Node4 -->
<g id="edge5" class="edge"><title>Node5&#45;&gt;Node4</title>
<path fill="none" stroke="midnightblue" d="M416.764,-17.9425C428.256,-19.5227 440.414,-21.1944 452.18,-22.8123"/>
<polygon fill="midnightblue" stroke="midnightblue" points="452.009,-26.3216 462.393,-24.2165 452.963,-19.3869 452.009,-26.3216"/>
</g>
</g>
</svg>
