<?xml version="1.0" encoding="UTF-8" standalone="no"?>
<!DOCTYPE svg PUBLIC "-//W3C//DTD SVG 1.1//EN"
 "http://www.w3.org/Graphics/SVG/1.1/DTD/svg11.dtd">
<!-- Generated by graphviz version 2.36.0 (20140111.2315)
 -->
<!-- Title: ShowClass.print_class Pages: 1 -->
<svg width="454pt" height="77pt"
 viewBox="0.00 0.00 454.00 77.00" xmlns="http://www.w3.org/2000/svg" xmlns:xlink="http://www.w3.org/1999/xlink">
<g id="graph0" class="graph" transform="scale(1 1) rotate(0) translate(4 73)">
<title>ShowClass.print_class</title>
<polygon fill="white" stroke="none" points="-4,4 -4,-73 450,-73 450,4 -4,4"/>
<!-- Node1 -->
<g id="node1" class="node"><title>Node1</title>
<polygon fill="#bfbfbf" stroke="black" points="0,-27.5 0,-46.5 122,-46.5 122,-27.5 0,-27.5"/>
<text text-anchor="middle" x="61" y="-34.5" font-family="Helvetica,sans-Serif" font-size="10.00">ShowClass.print_class</text>
</g>
<!-- Node2 -->
<g id="node2" class="node"><title>Node2</title>
<g id="a_node2"><a xlink:href="../../d3/d0a/class_show_class.html#a2c45574314a46cc35365d85ca7b298bd" target="_top" xlink:title="ShowClass.print_field">
<polygon fill="white" stroke="black" points="167.5,-49.5 167.5,-68.5 284.5,-68.5 284.5,-49.5 167.5,-49.5"/>
<text text-anchor="middle" x="226" y="-56.5" font-family="Helvetica,sans-Serif" font-size="10.00">ShowClass.print_field</text>
</a>
</g>
</g>
<!-- Node1&#45;&gt;Node2 -->
<g id="edge1" class="edge"><title>Node1&#45;&gt;Node2</title>
<path fill="none" stroke="midnightblue" d="M122.232,-45.1295C133.665,-46.6726 145.699,-48.2968 157.344,-49.8685"/>
<polygon fill="midnightblue" stroke="midnightblue" points="157.074,-53.3638 167.453,-51.2329 158.011,-46.4267 157.074,-53.3638"/>
</g>
<!-- Node4 -->
<g id="node4" class="node"><title>Node4</title>
<g id="a_node4"><a xlink:href="../../d3/d0a/class_show_class.html#ae6e5b2971dfe3d64b44b84edcea02688" target="_top" xlink:title="ShowClass.print_method\l_or_constructor">
<polygon fill="white" stroke="black" points="158.5,-0 158.5,-30 293.5,-30 293.5,-0 158.5,-0"/>
<text text-anchor="start" x="166.5" y="-18" font-family="Helvetica,sans-Serif" font-size="10.00">ShowClass.print_method</text>
<text text-anchor="middle" x="226" y="-7" font-family="Helvetica,sans-Serif" font-size="10.00">_or_constructor</text>
</a>
</g>
</g>
<!-- Node1&#45;&gt;Node4 -->
<g id="edge3" class="edge"><title>Node1&#45;&gt;Node4</title>
<path fill="none" stroke="midnightblue" d="M122.232,-28.8705C130.706,-27.7268 139.509,-26.5386 148.24,-25.3602"/>
<polygon fill="midnightblue" stroke="midnightblue" points="148.99,-28.7909 158.432,-23.9847 148.053,-21.8538 148.99,-28.7909"/>
</g>
<!-- Node3 -->
<g id="node3" class="node"><title>Node3</title>
<g id="a_node3"><a xlink:href="../../d3/d0a/class_show_class.html#a667a31cd9b8bd4b7b060c035c63f5b29" target="_top" xlink:title="ShowClass.modifiers">
<polygon fill="white" stroke="black" points="330.5,-27.5 330.5,-46.5 445.5,-46.5 445.5,-27.5 330.5,-27.5"/>
<text text-anchor="middle" x="388" y="-34.5" font-family="Helvetica,sans-Serif" font-size="10.00">ShowClass.modifiers</text>
</a>
</g>
</g>
<!-- Node2&#45;&gt;Node3 -->
<g id="edge2" class="edge"><title>Node2&#45;&gt;Node3</title>
<path fill="none" stroke="midnightblue" d="M284.764,-51.0575C296.256,-49.4773 308.414,-47.8056 320.18,-46.1877"/>
<polygon fill="midnightblue" stroke="midnightblue" points="320.963,-49.6131 330.393,-44.7835 320.009,-42.6784 320.963,-49.6131"/>
</g>
<!-- Node4&#45;&gt;Node3 -->
<g id="edge4" class="edge"><title>Node4&#45;&gt;Node3</title>
<path fill="none" stroke="midnightblue" d="M293.927,-24.2025C302.667,-25.4042 311.621,-26.6354 320.356,-27.8365"/>
<polygon fill="midnightblue" stroke="midnightblue" points="320.101,-31.3342 330.484,-29.2291 321.054,-24.3995 320.101,-31.3342"/>
</g>
</g>
</svg>
