<?xml version="1.0" encoding="UTF-8" standalone="no"?>
<!DOCTYPE svg PUBLIC "-//W3C//DTD SVG 1.1//EN"
 "http://www.w3.org/Graphics/SVG/1.1/DTD/svg11.dtd">
<!-- Generated by graphviz version 2.36.0 (20140111.2315)
 -->
<!-- Title: ShowClass.print_field Pages: 1 -->
<svg width="416pt" height="28pt"
 viewBox="0.00 0.00 416.00 28.00" xmlns="http://www.w3.org/2000/svg" xmlns:xlink="http://www.w3.org/1999/xlink">
<g id="graph0" class="graph" transform="scale(1 1) rotate(0) translate(4 24)">
<title>ShowClass.print_field</title>
<polygon fill="white" stroke="none" points="-4,4 -4,-24 412,-24 412,4 -4,4"/>
<!-- Node1 -->
<g id="node1" class="node"><title>Node1</title>
<polygon fill="#bfbfbf" stroke="black" points="0.5,-0.5 0.5,-19.5 117.5,-19.5 117.5,-0.5 0.5,-0.5"/>
<text text-anchor="middle" x="59" y="-7.5" font-family="Helvetica,sans-Serif" font-size="10.00">ShowClass.print_field</text>
</g>
<!-- Node2 -->
<g id="node2" class="node"><title>Node2</title>
<g id="a_node2"><a xlink:href="../../d3/d0a/class_show_class.html#a079a03c946ec1f137e32dfb517846479" target="_top" xlink:title="ShowClass.print_class">
<polygon fill="white" stroke="black" points="154,-0.5 154,-19.5 276,-19.5 276,-0.5 154,-0.5"/>
<text text-anchor="middle" x="215" y="-7.5" font-family="Helvetica,sans-Serif" font-size="10.00">ShowClass.print_class</text>
</a>
</g>
</g>
<!-- Node1&#45;&gt;Node2 -->
<g id="edge1" class="edge"><title>Node1&#45;&gt;Node2</title>
<path fill="none" stroke="midnightblue" d="M127.845,-10C136.501,-10 145.314,-10 153.838,-10"/>
<polygon fill="midnightblue" stroke="midnightblue" points="127.782,-6.5001 117.782,-10 127.782,-13.5001 127.782,-6.5001"/>
</g>
<!-- Node3 -->
<g id="node3" class="node"><title>Node3</title>
<g id="a_node3"><a xlink:href="../../d3/d0a/class_show_class.html#a9bf21c73b40707684884f21db741a2b1" target="_top" xlink:title="ShowClass.main">
<polygon fill="white" stroke="black" points="312.5,-0.5 312.5,-19.5 407.5,-19.5 407.5,-0.5 312.5,-0.5"/>
<text text-anchor="middle" x="360" y="-7.5" font-family="Helvetica,sans-Serif" font-size="10.00">ShowClass.main</text>
</a>
</g>
</g>
<!-- Node2&#45;&gt;Node3 -->
<g id="edge2" class="edge"><title>Node2&#45;&gt;Node3</title>
<path fill="none" stroke="midnightblue" d="M286.479,-10C295.244,-10 304.029,-10 312.308,-10"/>
<polygon fill="midnightblue" stroke="midnightblue" points="286.23,-6.5001 276.23,-10 286.23,-13.5001 286.23,-6.5001"/>
</g>
</g>
</svg>
