<?xml version="1.0" encoding="UTF-8" standalone="no"?>
<!DOCTYPE svg PUBLIC "-//W3C//DTD SVG 1.1//EN"
 "http://www.w3.org/Graphics/SVG/1.1/DTD/svg11.dtd">
<!-- Generated by graphviz version 2.36.0 (20140111.2315)
 -->
<!-- Title: ShowClass.print_method_or_constructor Pages: 1 -->
<svg width="434pt" height="38pt"
 viewBox="0.00 0.00 434.00 38.00" xmlns="http://www.w3.org/2000/svg" xmlns:xlink="http://www.w3.org/1999/xlink">
<g id="graph0" class="graph" transform="scale(1 1) rotate(0) translate(4 34)">
<title>ShowClass.print_method_or_constructor</title>
<polygon fill="white" stroke="none" points="-4,4 -4,-34 430,-34 430,4 -4,4"/>
<!-- Node1 -->
<g id="node1" class="node"><title>Node1</title>
<polygon fill="#bfbfbf" stroke="black" points="0.5,-0 0.5,-30 135.5,-30 135.5,-0 0.5,-0"/>
<text text-anchor="start" x="8.5" y="-18" font-family="Helvetica,sans-Serif" font-size="10.00">ShowClass.print_method</text>
<text text-anchor="middle" x="68" y="-7" font-family="Helvetica,sans-Serif" font-size="10.00">_or_constructor</text>
</g>
<!-- Node2 -->
<g id="node2" class="node"><title>Node2</title>
<g id="a_node2"><a xlink:href="../../d3/d0a/class_show_class.html#a079a03c946ec1f137e32dfb517846479" target="_top" xlink:title="ShowClass.print_class">
<polygon fill="white" stroke="black" points="172,-5.5 172,-24.5 294,-24.5 294,-5.5 172,-5.5"/>
<text text-anchor="middle" x="233" y="-12.5" font-family="Helvetica,sans-Serif" font-size="10.00">ShowClass.print_class</text>
</a>
</g>
</g>
<!-- Node1&#45;&gt;Node2 -->
<g id="edge1" class="edge"><title>Node1&#45;&gt;Node2</title>
<path fill="none" stroke="midnightblue" d="M145.937,-15C154.647,-15 163.427,-15 171.876,-15"/>
<polygon fill="midnightblue" stroke="midnightblue" points="145.769,-11.5001 135.769,-15 145.769,-18.5001 145.769,-11.5001"/>
</g>
<!-- Node3 -->
<g id="node3" class="node"><title>Node3</title>
<g id="a_node3"><a xlink:href="../../d3/d0a/class_show_class.html#a9bf21c73b40707684884f21db741a2b1" target="_top" xlink:title="ShowClass.main">
<polygon fill="white" stroke="black" points="330.5,-5.5 330.5,-24.5 425.5,-24.5 425.5,-5.5 330.5,-5.5"/>
<text text-anchor="middle" x="378" y="-12.5" font-family="Helvetica,sans-Serif" font-size="10.00">ShowClass.main</text>
</a>
</g>
</g>
<!-- Node2&#45;&gt;Node3 -->
<g id="edge2" class="edge"><title>Node2&#45;&gt;Node3</title>
<path fill="none" stroke="midnightblue" d="M304.479,-15C313.244,-15 322.029,-15 330.308,-15"/>
<polygon fill="midnightblue" stroke="midnightblue" points="304.23,-11.5001 294.23,-15 304.23,-18.5001 304.23,-11.5001"/>
</g>
</g>
</svg>
