<?xml version="1.0" encoding="UTF-8" standalone="no"?>
<!DOCTYPE svg PUBLIC "-//W3C//DTD SVG 1.1//EN"
 "http://www.w3.org/Graphics/SVG/1.1/DTD/svg11.dtd">
<!-- Generated by graphviz version 2.36.0 (20140111.2315)
 -->
<!-- Title: ShowClass.modifiers Pages: 1 -->
<svg width="586pt" height="77pt"
 viewBox="0.00 0.00 586.00 77.00" xmlns="http://www.w3.org/2000/svg" xmlns:xlink="http://www.w3.org/1999/xlink">
<g id="graph0" class="graph" transform="scale(1 1) rotate(0) translate(4 73)">
<title>ShowClass.modifiers</title>
<polygon fill="white" stroke="none" points="-4,4 -4,-73 582,-73 582,4 -4,4"/>
<!-- Node1 -->
<g id="node1" class="node"><title>Node1</title>
<polygon fill="#bfbfbf" stroke="black" points="0.5,-27.5 0.5,-46.5 115.5,-46.5 115.5,-27.5 0.5,-27.5"/>
<text text-anchor="middle" x="58" y="-34.5" font-family="Helvetica,sans-Serif" font-size="10.00">ShowClass.modifiers</text>
</g>
<!-- Node2 -->
<g id="node2" class="node"><title>Node2</title>
<g id="a_node2"><a xlink:href="../../d3/d0a/class_show_class.html#a2c45574314a46cc35365d85ca7b298bd" target="_top" xlink:title="ShowClass.print_field">
<polygon fill="white" stroke="black" points="161.5,-49.5 161.5,-68.5 278.5,-68.5 278.5,-49.5 161.5,-49.5"/>
<text text-anchor="middle" x="220" y="-56.5" font-family="Helvetica,sans-Serif" font-size="10.00">ShowClass.print_field</text>
</a>
</g>
</g>
<!-- Node1&#45;&gt;Node2 -->
<g id="edge1" class="edge"><title>Node1&#45;&gt;Node2</title>
<path fill="none" stroke="midnightblue" d="M126.023,-46.2157C137.729,-47.8252 149.815,-49.4871 161.243,-51.0585"/>
<polygon fill="midnightblue" stroke="midnightblue" points="126.244,-42.7132 115.861,-44.8183 125.291,-49.648 126.244,-42.7132"/>
</g>
<!-- Node5 -->
<g id="node5" class="node"><title>Node5</title>
<g id="a_node5"><a xlink:href="../../d3/d0a/class_show_class.html#ae6e5b2971dfe3d64b44b84edcea02688" target="_top" xlink:title="ShowClass.print_method\l_or_constructor">
<polygon fill="white" stroke="black" points="152.5,-0 152.5,-30 287.5,-30 287.5,-0 152.5,-0"/>
<text text-anchor="start" x="160.5" y="-18" font-family="Helvetica,sans-Serif" font-size="10.00">ShowClass.print_method</text>
<text text-anchor="middle" x="220" y="-7" font-family="Helvetica,sans-Serif" font-size="10.00">_or_constructor</text>
</a>
</g>
</g>
<!-- Node1&#45;&gt;Node5 -->
<g id="edge4" class="edge"><title>Node1&#45;&gt;Node5</title>
<path fill="none" stroke="midnightblue" d="M126.014,-27.7855C134.77,-26.5817 143.738,-25.3485 152.485,-24.1458"/>
<polygon fill="midnightblue" stroke="midnightblue" points="125.291,-24.352 115.861,-29.1817 126.244,-31.2868 125.291,-24.352"/>
</g>
<!-- Node3 -->
<g id="node3" class="node"><title>Node3</title>
<g id="a_node3"><a xlink:href="../../d3/d0a/class_show_class.html#a079a03c946ec1f137e32dfb517846479" target="_top" xlink:title="ShowClass.print_class">
<polygon fill="white" stroke="black" points="324,-27.5 324,-46.5 446,-46.5 446,-27.5 324,-27.5"/>
<text text-anchor="middle" x="385" y="-34.5" font-family="Helvetica,sans-Serif" font-size="10.00">ShowClass.print_class</text>
</a>
</g>
</g>
<!-- Node2&#45;&gt;Node3 -->
<g id="edge2" class="edge"><title>Node2&#45;&gt;Node3</title>
<path fill="none" stroke="midnightblue" d="M288.96,-49.8274C300.515,-48.2679 312.443,-46.658 323.781,-45.1278"/>
<polygon fill="midnightblue" stroke="midnightblue" points="288.369,-46.3755 278.927,-51.1817 289.305,-53.3126 288.369,-46.3755"/>
</g>
<!-- Node4 -->
<g id="node4" class="node"><title>Node4</title>
<g id="a_node4"><a xlink:href="../../d3/d0a/class_show_class.html#a9bf21c73b40707684884f21db741a2b1" target="_top" xlink:title="ShowClass.main">
<polygon fill="white" stroke="black" points="482.5,-27.5 482.5,-46.5 577.5,-46.5 577.5,-27.5 482.5,-27.5"/>
<text text-anchor="middle" x="530" y="-34.5" font-family="Helvetica,sans-Serif" font-size="10.00">ShowClass.main</text>
</a>
</g>
</g>
<!-- Node3&#45;&gt;Node4 -->
<g id="edge3" class="edge"><title>Node3&#45;&gt;Node4</title>
<path fill="none" stroke="midnightblue" d="M456.479,-37C465.244,-37 474.029,-37 482.308,-37"/>
<polygon fill="midnightblue" stroke="midnightblue" points="456.23,-33.5001 446.23,-37 456.23,-40.5001 456.23,-33.5001"/>
</g>
<!-- Node5&#45;&gt;Node3 -->
<g id="edge5" class="edge"><title>Node5&#45;&gt;Node3</title>
<path fill="none" stroke="midnightblue" d="M297.937,-25.3842C306.647,-26.5597 315.427,-27.7447 323.876,-28.8852"/>
<polygon fill="midnightblue" stroke="midnightblue" points="298.147,-21.8808 287.769,-24.0117 297.211,-28.8179 298.147,-21.8808"/>
</g>
</g>
</svg>
